# xmcd
#
# Track frame offsets:
# 150
# 19548
# 30525
# 40123
# 61272
# 74300
# 88982
# 106172
# 120985
# 132715
# 150155
# 161110
# 174336
# 187944
# 197370
# 213486
# 238178
#
# Disc length: 3410 seconds
#
#
# Revision: 0
# Processed by: cddbd v1.5.1PL0 Copyright (c) Steve Scherf et al.
# Submitted via: FreeRIP 2.941 
#
DISCID=d90d5011
DTITLE=amaury júnior - demorou
DYEAR=2005
DGENRE=Country
TTITLE0=demorou
TTITLE1=virar o zoi
TTITLE2=fumo entrando
TTITLE3=deixe as águas rolar
TTITLE4=tobas
TTITLE5=tô com menos uma
TTITLE6=só ela
TTITLE7=melô do cachorro
TTITLE8=xamego danado
TTITLE9=não cozinho não
TTITLE10=melô do gay
TTITLE11=mulher precisa de carinho
TTITLE12=tô facim
TTITLE13=treme treme
TTITLE14=cama de pau duro
TTITLE15=não sou sem vergonha
TTITLE16=eu duvido
EXTD=FORRÓ
EXTT0=
EXTT1=
EXTT2=
EXTT3=
EXTT4=
EXTT5=
EXTT6=
EXTT7=
EXTT8=
EXTT9=
EXTT10=
EXTT11=
EXTT12=
EXTT13=
EXTT14=
EXTT15=
EXTT16=
PLAYORDER=
